<svg width="19" height="21" viewBox="0 0 19 21" fill="none" xmlns="http://www.w3.org/2000/svg">
<path fill-rule="evenodd" clip-rule="evenodd" d="M12.6469 0.916748C16.1802 0.916748 18.2073 2.52579 18.2073 5.32892V19.2592C18.2073 19.8438 17.8802 20.37 17.3302 20.6642C16.7823 20.9593 16.1219 20.9651 15.5677 20.6776L9.35939 17.4509L3.09376 20.6843C2.82293 20.8242 2.52605 20.8951 2.22814 20.8951C1.92084 20.8951 1.61355 20.8194 1.33439 20.668C0.785427 20.3738 0.458344 19.8477 0.458344 19.264V5.15354C0.458344 2.46062 2.48647 0.916748 6.02293 0.916748H12.6469ZM12.6469 2.35425H6.02293C3.36772 2.35425 2.02084 3.29533 2.02084 5.15354V19.264C2.02084 19.3541 2.07709 19.403 2.12397 19.4279C2.17084 19.4547 2.2448 19.4739 2.33022 19.4298L8.97814 15.999C9.21564 15.8773 9.50626 15.8763 9.7448 16L16.3354 19.425C16.4219 19.471 16.4958 19.45 16.5427 19.4241C16.5896 19.3982 16.6448 19.3493 16.6448 19.2592L16.6444 5.21971C16.6365 4.3949 16.4631 2.35425 12.6469 2.35425ZM13.104 7.36489C13.5352 7.36489 13.8852 7.68689 13.8852 8.08364C13.8852 8.48039 13.5352 8.80239 13.104 8.80239H5.48105C5.0498 8.80239 4.6998 8.48039 4.6998 8.08364C4.6998 7.68689 5.0498 7.36489 5.48105 7.36489H13.104Z" fill="black"/>
</svg>
