<svg width="22" height="23" viewBox="0 0 22 23" fill="none" xmlns="http://www.w3.org/2000/svg">
<path fill-rule="evenodd" clip-rule="evenodd" d="M12.2885 14.9285C13.5427 14.9285 14.5635 15.942 14.5635 17.1878V20.392C14.5635 20.6597 14.7781 20.8743 15.0531 20.8806H17.0385C18.6031 20.8806 19.875 19.6243 19.875 18.0806V8.99305C19.8677 8.4618 19.6146 7.9618 19.1802 7.62951L12.3125 2.15243C11.3906 1.42222 10.101 1.42222 9.17602 2.15451L2.35519 7.62743C1.90415 7.97013 1.65102 8.47013 1.64581 9.01076V18.0806C1.64581 19.6243 2.91769 20.8806 4.48227 20.8806H6.48644C6.76873 20.8806 6.9979 20.6566 6.9979 20.3816C6.9979 20.3212 7.00519 20.2608 7.01769 20.2035V17.1878C7.01769 15.9493 8.03227 14.9368 9.27706 14.9285H12.2885ZM17.0385 22.4431H15.0344C13.8864 22.416 13.001 21.5149 13.001 20.392V17.1878C13.001 16.8035 12.6812 16.491 12.2885 16.491H9.28227C8.8979 16.493 8.58019 16.8066 8.58019 17.1878V20.3816C8.58019 20.4597 8.56977 20.5347 8.5479 20.6056C8.4354 21.6368 7.55415 22.4431 6.48644 22.4431H4.48227C2.05623 22.4431 0.083313 20.4858 0.083313 18.0806V9.00347C0.0937297 7.96805 0.570813 7.02013 1.39477 6.39617L8.20206 0.932634C9.70102 -0.254866 11.7896 -0.254866 13.2854 0.93055L20.1416 6.3993C20.9469 7.01284 21.4239 7.95868 21.4375 8.98159V18.0806C21.4375 20.4858 19.4646 22.4431 17.0385 22.4431Z" fill="black"/>
</svg>
